<?xml version="1.0" encoding="utf-8"?>
<!-- Generator: Adobe Illustrator 16.0.0, SVG Export Plug-In . SVG Version: 6.00 Build 0)  -->
<!DOCTYPE svg PUBLIC "-//W3C//DTD SVG 1.1//EN" "http://www.w3.org/Graphics/SVG/1.1/DTD/svg11.dtd">
<svg version="1.1" id="Layer_1" xmlns="http://www.w3.org/2000/svg" xmlns:xlink="http://www.w3.org/1999/xlink" x="0px" y="0px"
	 width="49px" height="43px" viewBox="0 0 49 43" enable-background="new 0 0 49 43" xml:space="preserve">
<g>
	<path d="M1.235,16.411l0.1,0.105L24.502,43L47.67,16.516l0.104-0.119l0.004,0.003l1.218-1.393L48.99,15L49,14.991l-1.231-1.409
		l-0.099-0.105L35.881,0H13.125l-1.078,1.233L11.76,1.56L1.335,13.478l-0.094,0.109l-0.005-0.005l-1.232,1.41v0.001L0,14.998
		L1.235,16.411z M23.639,28.598v10.254v0.341l-0.226-0.256l-8.97-10.254l-0.185-0.213h0.281h8.97h0.129V28.598z M23.639,16.126
		v8.732V25.2l-0.226-0.257l-7.639-8.733l-0.186-0.212h0.284h7.638h0.129V16.126z M15.072,13.987H14.79l0.185-0.211l3.712-4.244
		l0.097-0.111l0.097,0.111l3.713,4.244l0.185,0.211h-0.282H15.072z M34.561,28.683l-8.97,10.254l-0.226,0.256v-0.341V28.598V28.47
		h0.129h8.969h0.283L34.561,28.683z M33.133,15.998h0.283l-0.188,0.212l-7.638,8.732l-0.226,0.257v-0.342v-8.731v-0.128h0.129
		H33.133z M26.225,13.987l0.188-0.211l3.712-4.244l0.097-0.111l0.096,0.111l3.712,4.244l0.188,0.211h-0.283h-7.425H26.225z
		 M45.471,16.21l-8.927,10.205l-0.039,0.044h-0.058h-9.436h-0.282l0.186-0.213l8.927-10.204l0.037-0.044h0.06h9.437h0.283
		L45.471,16.21z M35.938,2.884l0.097,0.11l9.43,10.781l0.188,0.211h-0.283h-8.631h-0.06l-0.037-0.043l-5.114-5.848l-0.075-0.084
		l0.075-0.084l4.314-4.933L35.938,2.884z M26.485,2.011h7.47h0.281l-0.185,0.212l-3.735,4.269l-0.096,0.11l-0.097-0.11l-3.735-4.269
		l-0.185-0.212H26.485z M24.502,2.884l0.097,0.11l4.314,4.933l0.075,0.084l-0.075,0.084l-4.314,4.933l-0.097,0.111l-0.096-0.111
		L20.09,8.096l-0.073-0.084l0.073-0.084l4.315-4.933L24.502,2.884z M15.049,2.011h7.469h0.284l-0.186,0.212l-3.734,4.269
		l-0.097,0.11l-0.098-0.11l-3.735-4.269l-0.185-0.212H15.049z M3.54,13.775l9.429-10.781l0.098-0.11l0.097,0.11l4.315,4.934
		l0.073,0.084l-0.073,0.084l-5.114,5.847l-0.039,0.043h-0.059H3.637H3.354L3.54,13.775z M3.629,15.998h9.437h0.059l0.039,0.044
		l8.926,10.204l0.185,0.213h-0.281h-9.436h-0.058l-0.039-0.044L3.533,16.21l-0.185-0.212H3.629z" />
</g>
</svg>
